<?xml version="1.0" encoding="UTF-8" standalone="no"?>
<!-- Created with Inkscape (http://www.inkscape.org/) -->

<svg
   xmlns:dc="http://purl.org/dc/elements/1.1/"
   xmlns:cc="http://creativecommons.org/ns#"
   xmlns:rdf="http://www.w3.org/1999/02/22-rdf-syntax-ns#"
   xmlns:svg="http://www.w3.org/2000/svg"
   xmlns="http://www.w3.org/2000/svg"
   xmlns:sodipodi="http://sodipodi.sourceforge.net/DTD/sodipodi-0.dtd"
   xmlns:inkscape="http://www.inkscape.org/namespaces/inkscape"
   width="550"
   height="330"
   id="svg3593"
   version="1.1"
   inkscape:version="0.48.4 r9939"
   sodipodi:docname="intro_3.svg">
  <defs
     id="defs3595">
    <inkscape:path-effect
       effect="spiro"
       id="path-effect10505"
       is_visible="true" />
    <inkscape:path-effect
       effect="spiro"
       id="path-effect10509"
       is_visible="true" />
    <inkscape:path-effect
       effect="spiro"
       id="path-effect10513"
       is_visible="true" />
    <inkscape:path-effect
       effect="spiro"
       id="path-effect10517"
       is_visible="true" />
    <inkscape:path-effect
       effect="spiro"
       id="path-effect10527"
       is_visible="true" />
  </defs>
  <sodipodi:namedview
     id="base"
     pagecolor="#ffffff"
     bordercolor="#666666"
     borderopacity="1.0"
     inkscape:pageopacity="0.0"
     inkscape:pageshadow="2"
     inkscape:zoom="1.8066667"
     inkscape:cx="273.05915"
     inkscape:cy="216.42064"
     inkscape:document-units="px"
     inkscape:current-layer="layer1"
     showgrid="false"
     inkscape:window-width="1366"
     inkscape:window-height="719"
     inkscape:window-x="0"
     inkscape:window-y="25"
     inkscape:window-maximized="1"
     fit-margin-top="0"
     fit-margin-left="0"
     fit-margin-right="0"
     fit-margin-bottom="0" />
  <metadata
     id="metadata3598">
    <rdf:RDF>
      <cc:Work
         rdf:about="">
        <dc:format>image/svg+xml</dc:format>
        <dc:type
           rdf:resource="http://purl.org/dc/dcmitype/StillImage" />
        <dc:title></dc:title>
      </cc:Work>
    </rdf:RDF>
  </metadata>
  <g
     inkscape:label="Layer 1"
     inkscape:groupmode="layer"
     id="layer1"
     transform="translate(-72.047244,-414.12837)">
    <g
       id="g3656"
       transform="matrix(1.8527508,0,0,1.8527508,-534.03482,-567.62578)">
      <g
         inkscape:export-ydpi="166.74196"
         inkscape:export-xdpi="166.74196"
         inkscape:export-filename="/home/rlafuente/Projects/GPG/ilustras-site/weboftrust.png"
         style="stroke:#5f8dd3;stroke-opacity:0.26600988"
         id="g10533"
         transform="translate(310.49464,529.52136)">
        <path
           style="fill:none;stroke:#5f8dd3;stroke-width:1px;stroke-linecap:butt;stroke-linejoin:miter"
           d="m 53.577152,36.539389 c 3.446669,6.821656 9.246643,12.426248 16.182357,15.637227 6.935714,3.210979 14.961735,4.00731 22.393192,2.221824 7.907299,-1.899812 14.832479,-6.515235 21.932259,-10.481067 3.54988,-1.982916 7.19909,-3.826658 11.06232,-5.095157 3.86324,-1.268499 7.9621,-1.950918 12.01023,-1.568465 7.55605,0.713868 14.29924,5.037997 20.0543,9.986012 5.75505,4.948014 10.88297,10.652598 17.09252,15.016659 12.23228,8.596828 27.64271,11.323994 40.71864,18.573413 6.04873,3.353473 11.52302,7.634008 17.23318,11.53619 5.71015,3.902183 11.78069,7.481432 18.48492,9.180305 5.1565,1.30667 10.61142,1.45602 15.8165,0.35874 5.20509,-1.09728 10.15089,-3.446136 14.24242,-6.845596 4.09153,-3.39946 7.31575,-7.848629 9.2019,-12.822496 1.88615,-4.973867 2.42149,-10.462917 1.45781,-15.694384 -1.62813,-8.838564 -7.38236,-16.470616 -14.28877,-22.221494 -6.90641,-5.750877 -14.97858,-9.888348 -22.85805,-14.210969 -6.67516,-3.661949 -13.34554,-7.524675 -20.68086,-9.564462 -3.66766,-1.019893 -7.48659,-1.570017 -11.28788,-1.364723 -3.80128,0.205295 -7.58759,1.182729 -10.89298,3.071203 -4.13421,2.362008 -7.4027,6.094007 -9.57536,10.330791 -2.17267,4.236784 -3.28771,8.963787 -3.66217,13.710427 -0.74893,9.493278 1.38814,18.940272 2.93547,28.336495 1.54732,9.396223 2.47833,19.246711 -0.57059,28.268198 -1.52447,4.51075 -4.06131,8.72983 -7.62149,11.89147 -3.56017,3.16164 -8.17786,5.2126 -12.93779,5.33022 -4.16366,0.10288 -8.27321,-1.25405 -11.87295,-3.34893 -3.59974,-2.09488 -6.73235,-4.90518 -9.64832,-7.87903 -5.83193,-5.94769 -11.09784,-12.779115 -18.483,-16.632163 -4.39315,-2.292031 -9.39515,-3.403741 -14.34559,-3.188348 -4.95043,0.215392 -9.83697,1.757353 -14.01444,4.422291 -4.17747,2.664938 -7.63548,6.446226 -9.91745,10.84461 -2.281978,4.39838 -3.38224,9.40291 -3.155521,14.35284"
           id="path10503"
           inkscape:connector-curvature="0" />
        <path
           style="fill:none;stroke:#5f8dd3;stroke-width:1px;stroke-linecap:butt;stroke-linejoin:miter"
           d="m 62.863858,97.260161 c 5.097542,1.2417 10.535263,1.054311 15.535232,-0.535361 4.99997,-1.589672 9.547503,-4.576956 12.992021,-8.534487 3.444517,-3.957531 5.775903,-8.873685 6.660624,-14.045147 C 98.936456,68.973704 98.371914,63.562122 96.438873,58.684612 93.295457,50.753045 86.579149,44.460097 78.70377,41.178446 70.828391,37.896796 61.897847,37.510872 53.577152,39.396837 45.07097,41.324844 37.068097,45.628355 31.011904,51.904889 c -6.056192,6.276533 -10.10073,14.535604 -11.009767,23.210049 -0.659048,6.28893 0.316775,12.723156 2.661565,18.595715 2.34479,5.872559 6.042984,11.181417 10.628449,15.535547 9.17093,8.70828 21.746528,13.41706 34.373791,14.1186 12.627264,0.70153 25.285435,-2.41925 36.744388,-7.77016 11.45896,-5.35091 21.79045,-12.87585 31.31845,-21.191927 17.74857,-15.491021 32.97169,-33.867347 51.88219,-47.916416 9.45525,-7.024534 19.85036,-12.939244 31.11597,-16.378996 11.26561,-3.439753 23.45429,-4.322673 34.87158,-1.425894 16.92854,4.295087 31.28951,16.988129 38.57555,32.860653 6.64539,14.476878 7.55739,31.493879 2.49737,46.59809 -5.06003,15.10422 -16.03914,28.1376 -30.06439,35.68966 -14.02525,7.55206 -30.94989,9.54377 -46.34516,5.45394 -15.39528,-4.08982 -29.10011,-14.21837 -37.5283,-27.73528"
           id="path10507"
           inkscape:connector-curvature="0" />
        <path
           style="fill:none;stroke:#5f8dd3;stroke-width:1px;stroke-linecap:butt;stroke-linejoin:miter"
           d="m 210.7368,15.108529 c -9.52495,3.060099 -18.19707,8.730176 -24.82036,16.228234 -6.62329,7.498058 -11.1797,16.803687 -13.04083,26.633487 -3.11209,16.436863 1.4141,33.760561 10.32072,47.92134 8.90661,14.16078 21.56713,26.2605 36.11281,34.23029 13.44766,7.36817 29.50755,13.57769 44.641,11.10619 11.28635,-1.84322 21.62967,-9.64003 28.92782,-18.44436 9.26901,-11.18194 14.01979,-26.08798 16.20543,-40.446713 1.96182,-12.888262 2.02067,-26.992939 -3.08496,-38.988294 -3.92476,-9.220957 -10.69253,-18.662768 -19.95598,-22.486142 -10.45699,-4.315992 -23.22057,-1.704106 -33.87266,2.105018 -27.98558,10.007472 -49.35913,33.035776 -72.31941,52.153432 -11.48014,9.558828 -23.61256,18.515379 -37.12743,24.880379 -13.51486,6.36499 -28.55064,10.05696 -43.426629,8.68963 C 83.922493,117.27793 68.836585,110.10932 59.292048,97.974523 51.598811,88.193446 47.783569,75.44405 48.83938,63.044831 49.895191,50.645612 55.811132,38.72484 65.047363,30.385331 74.283594,22.045822 86.744566,17.373849 99.186856,17.585462 c 12.442294,0.211614 24.737184,5.304626 33.684484,13.953393"
           id="path10511"
           inkscape:connector-curvature="0"
           sodipodi:nodetypes="csssaaaaaaasssssssc" />
        <path
           style="fill:none;stroke:#5f8dd3;stroke-width:1px;stroke-linecap:butt;stroke-linejoin:miter"
           d="m 172.87561,57.255888 c 8.01552,7.276306 13.79209,16.986143 16.36168,27.502338 2.56959,10.516195 1.92171,21.795824 -1.83508,31.948644 -3.75678,10.15282 -10.60712,19.13738 -19.40305,25.44807 -8.79593,6.31069 -19.50154,9.92173 -30.32279,10.22799 -10.82124,0.30626 -21.71395,-2.69351 -30.85273,-8.49661 -9.13877,-5.8031 -16.486304,-14.38584 -20.8113,-24.30993 C 81.687344,109.6523 80.402541,98.427374 82.373237,87.78268 84.343934,77.137987 89.562085,67.116978 97.153235,59.398974 108.15303,48.215368 123.29475,42.333858 137.87187,36.539389 c 28.70028,-11.408483 58.29155,-23.895549 89.1345,-22.291834 15.42148,0.801857 30.87843,5.329118 43.31677,14.480748 12.43835,9.151631 21.59546,23.178461 23.27965,38.528653 1.04157,9.493175 -0.76057,19.216885 -4.6936,27.919559 -3.93303,8.702675 -9.9518,16.396405 -17.13383,22.691145 -14.36406,12.58946 -32.98622,19.40885 -51.75186,22.96858 -18.05976,3.42583 -37.42238,3.91954 -54.12871,-3.7479 -8.35317,-3.83373 -15.85684,-9.70893 -21.03065,-17.30527 -5.17382,-7.59635 -7.91434,-16.95018 -6.99227,-26.094719 0.88562,-8.783118 5.05751,-17.008373 10.68216,-23.812107 5.62466,-6.803734 12.6598,-12.302867 19.94401,-17.289627 14.56842,-9.973521 30.87199,-18.599268 40.81003,-33.191916"
           id="path10515"
           inkscape:connector-curvature="0"
           sodipodi:nodetypes="cssssssssssssssssssssc" />
        <path
           style="fill:none;stroke:#5f8dd3;stroke-width:1px;stroke-linecap:butt;stroke-linejoin:miter"
           d="m 216.95343,76.218535 c -0.63775,-10.663931 2.74188,-21.52057 9.31969,-29.938324 6.5778,-8.417754 16.29534,-14.321824 26.79712,-16.281092 10.12874,-1.889671 21.15578,0.01023 29.3712,6.228668 4.10771,3.10922 7.45652,7.247127 9.48852,11.981208 2.03199,4.734081 2.723,10.059732 1.80327,15.128719 -0.82355,4.538908 -2.9037,8.791225 -5.62962,12.512686 -2.72593,3.721461 -6.08741,6.938042 -9.64973,9.868873 -7.12465,5.861663 -15.13974,10.67971 -21.59516,17.271167 -6.10626,6.23494 -10.59583,13.82967 -15.41085,21.10816 -4.81503,7.27849 -10.1631,14.45867 -17.42261,19.30226 -4.70252,3.13755 -10.14495,5.20747 -15.77111,5.759 -5.62616,0.55153 -11.42693,-0.44266 -16.44787,-3.04036 -5.02094,-2.5977 -9.2248,-6.81889 -11.60028,-11.9487 -2.37548,-5.12981 -2.86461,-11.1488 -1.13733,-16.53159 1.51394,-4.71795 4.62952,-8.8005 8.31707,-12.11003 3.68756,-3.30954 7.94829,-5.909015 12.23973,-8.385821 4.29144,-2.476805 8.65526,-4.860296 12.64033,-7.804834 3.98507,-2.944537 7.61316,-6.500118 9.9915,-10.846904 2.4769,-4.526912 3.50341,-9.800373 3.11774,-14.94617 -0.38567,-5.145796 -2.15822,-10.155315 -4.91446,-14.517782 -5.51247,-8.724936 -14.77814,-14.642151 -24.66663,-17.596744 -9.88849,-2.954594 -20.40488,-3.170152 -30.69277,-2.350934 -10.28789,0.819217 -20.46984,2.645355 -30.73654,3.697344 -8.44667,0.865498 -17.15082,1.255551 -24.9183,4.685068 -3.88374,1.714758 -7.47926,4.203998 -10.114932,7.532218 -2.635675,3.328219 -4.260174,7.533457 -4.11436,11.7764 0.166509,4.845137 2.611199,9.412323 5.975762,12.902712 3.36456,3.490389 7.60074,6.014831 11.9365,8.183757 4.33577,2.168926 8.83001,4.028261 13.04511,6.423272 4.21509,2.395011 8.19738,5.386788 10.96844,9.364766 3.08088,4.422741 4.5049,9.937482 4.13305,15.314672 -0.37185,5.37719 -2.50704,10.5913 -5.87043,14.8032 -3.36338,4.2119 -7.92575,7.42411 -12.96108,9.34712 -5.03532,1.92302 -10.52909,2.57136 -15.895,2.06197 C 95.817577,134.1537 85.842178,128.53798 78.297211,120.83841 70.752243,113.13884 65.474495,103.46263 61.625888,93.392963 55.045111,76.174732 52.432838,57.453444 54.048935,39.091463"
           id="path10525"
           inkscape:connector-curvature="0" />
      </g>
      <path
         inkscape:export-ydpi="166.74196"
         inkscape:export-xdpi="166.74196"
         inkscape:export-filename="/home/rlafuente/Projects/GPG/ilustras-site/weboftrust.png"
         style="color:#000000;fill:#5f8dd3;fill-opacity:1;fill-rule:nonzero;stroke:none;stroke-width:1.76498926;marker:none;visibility:visible;display:inline;overflow:visible;enable-background:accumulate"
         d="m 528.73107,597.28713 9.13163,5.2711 0,10.54963 -7.93635,4.58066 0,18.03313 c 0,0.53513 -0.43001,0.96513 -0.96513,0.96513 l -0.46772,0 c -0.53513,0 -0.96513,-0.43 -0.96513,-0.96513 l 0,-0.48999 -0.69044,0 -3.50418,0 0,-1.04681 1.31408,0 c 0.13383,0 0.24499,-0.28144 0.24499,-0.40831 0,-0.12684 -0.11116,-0.4306 -0.24499,-0.4306 l -0.59393,0 0,-0.57907 c 0,0 0.24499,-0.10375 0.24499,-0.23758 l 0,-0.0668 c 0,-0.13382 -0.11116,-0.24498 -0.24499,-0.24498 l -0.72015,0 0,-0.7053 0.95029,0 c 0.13385,0 0.24501,-0.11115 0.24501,-0.24498 l 0,-0.77211 c 0,-0.13385 -0.11116,-0.24498 -0.24501,-0.24498 l -0.95029,0 0,-0.68301 3.50418,0 0.69044,0 0,-11.886 -7.92892,-4.57324 0,-10.54963 9.13162,-5.2711 z"
         id="rect7319-3"
         inkscape:connector-curvature="0" />
      <path
         inkscape:export-ydpi="166.74196"
         inkscape:export-xdpi="166.74196"
         inkscape:export-filename="/home/rlafuente/Projects/GPG/ilustras-site/weboftrust.png"
         inkscape:connector-curvature="0"
         id="path10477"
         d="m 448.27081,614.25901 9.13163,5.2711 0,10.54964 -7.93635,4.58064 0,18.03311 c 0,0.53513 -0.43001,0.96513 -0.96513,0.96513 l -0.46772,0 c -0.53513,0 -0.96513,-0.43 -0.96513,-0.96513 l 0,-0.48999 -0.69044,0 -3.50418,0 0,-1.04681 1.31408,0 c 0.13383,0 0.24499,-0.28144 0.24499,-0.40831 0,-0.12684 -0.11116,-0.4306 -0.24499,-0.4306 l -0.59393,0 0,-0.57907 c 0,0 0.24499,-0.10375 0.24499,-0.23758 l 0,-0.0668 c 0,-0.13382 -0.11116,-0.24498 -0.24499,-0.24498 l -0.72015,0 0,-0.7053 0.95029,0 c 0.13385,0 0.24501,-0.11115 0.24501,-0.24498 l 0,-0.77211 c 0,-0.13385 -0.11116,-0.24498 -0.24501,-0.24498 l -0.95029,0 0,-0.68301 3.50418,0 0.69044,0 0,-11.88598 -7.92892,-4.57322 0,-10.54964 9.13162,-5.2711 z"
         style="color:#000000;fill:#5f8dd3;fill-opacity:1;fill-rule:nonzero;stroke:none;stroke-width:1.76498926;marker:none;visibility:visible;display:inline;overflow:visible;enable-background:accumulate" />
      <path
         inkscape:export-ydpi="166.74196"
         inkscape:export-xdpi="166.74196"
         inkscape:export-filename="/home/rlafuente/Projects/GPG/ilustras-site/weboftrust.png"
         style="color:#000000;fill:#5f8dd3;fill-opacity:1;fill-rule:nonzero;stroke:none;stroke-width:1.76498926;marker:none;visibility:visible;display:inline;overflow:visible;enable-background:accumulate"
         d="m 484.18906,576.53886 9.13163,5.2711 0,10.54963 -7.93635,4.58066 0,18.03311 c 0,0.53513 -0.43001,0.96513 -0.96513,0.96513 l -0.46772,0 c -0.53513,0 -0.96513,-0.43 -0.96513,-0.96513 l 0,-0.48999 -0.69044,0 -3.50418,0 0,-1.04681 1.31408,0 c 0.13383,0 0.24499,-0.28144 0.24499,-0.40831 0,-0.12684 -0.11116,-0.4306 -0.24499,-0.4306 l -0.59393,0 0,-0.57907 c 0,0 0.24499,-0.10375 0.24499,-0.23758 l 0,-0.0668 c 0,-0.13382 -0.11116,-0.24498 -0.24499,-0.24498 l -0.72015,0 0,-0.7053 0.95029,0 c 0.13385,0 0.24501,-0.11115 0.24501,-0.24498 l 0,-0.77211 c 0,-0.13385 -0.11116,-0.24498 -0.24501,-0.24498 l -0.95029,0 0,-0.68301 3.50418,0 0.69044,0 0,-11.88598 -7.92892,-4.57324 0,-10.54963 9.13162,-5.2711 z"
         id="path10479"
         inkscape:connector-curvature="0" />
      <path
         inkscape:export-ydpi="166.74196"
         inkscape:export-xdpi="166.74196"
         inkscape:export-filename="/home/rlafuente/Projects/GPG/ilustras-site/weboftrust.png"
         inkscape:connector-curvature="0"
         id="path10481"
         d="m 444.47926,552.78386 9.13163,5.2711 0,10.54963 -7.93635,4.58066 0,18.03311 c 0,0.53513 -0.43001,0.96513 -0.96513,0.96513 l -0.46772,0 c -0.53513,0 -0.96513,-0.43 -0.96513,-0.96513 l 0,-0.48999 -0.69044,0 -3.50418,0 0,-1.04681 1.31408,0 c 0.13383,0 0.24499,-0.28144 0.24499,-0.40831 0,-0.12684 -0.11116,-0.4306 -0.24499,-0.4306 l -0.59393,0 0,-0.57907 c 0,0 0.24499,-0.10375 0.24499,-0.23758 l 0,-0.0668 c 0,-0.13382 -0.11116,-0.24498 -0.24499,-0.24498 l -0.72015,0 0,-0.7053 0.95029,0 c 0.13385,0 0.24501,-0.11115 0.24501,-0.24498 l 0,-0.77211 c 0,-0.13385 -0.11116,-0.24498 -0.24501,-0.24498 l -0.95029,0 0,-0.68301 3.50418,0 0.69044,0 0,-11.88598 -7.92892,-4.57324 0,-10.54963 9.13162,-5.2711 z"
         style="color:#000000;fill:#5f8dd3;fill-opacity:1;fill-rule:nonzero;stroke:none;stroke-width:1.76498926;marker:none;visibility:visible;display:inline;overflow:visible;enable-background:accumulate" />
      <path
         inkscape:export-ydpi="166.74196"
         inkscape:export-xdpi="166.74196"
         inkscape:export-filename="/home/rlafuente/Projects/GPG/ilustras-site/weboftrust.png"
         style="color:#000000;fill:#5f8dd3;fill-opacity:1;fill-rule:nonzero;stroke:none;stroke-width:1.76498926;marker:none;visibility:visible;display:inline;overflow:visible;enable-background:accumulate"
         d="m 408.06273,577.35447 9.13162,5.2711 0,10.54963 -7.93634,4.58066 0,18.03311 c 0,0.53513 -0.43001,0.96513 -0.96513,0.96513 l -0.46772,0 c -0.53513,0 -0.96513,-0.43 -0.96513,-0.96513 l 0,-0.48999 -0.69044,0 -3.50418,0 0,-1.04681 1.31408,0 c 0.13383,0 0.24499,-0.28144 0.24499,-0.40831 0,-0.12684 -0.11116,-0.4306 -0.24499,-0.4306 l -0.59393,0 0,-0.57907 c 0,0 0.24499,-0.10375 0.24499,-0.23758 l 0,-0.0668 c 0,-0.13382 -0.11116,-0.24498 -0.24499,-0.24498 l -0.72015,0 0,-0.7053 0.95029,0 c 0.13385,0 0.24501,-0.11115 0.24501,-0.24498 l 0,-0.77211 c 0,-0.13385 -0.11116,-0.24498 -0.24501,-0.24498 l -0.95029,0 0,-0.68301 3.50418,0 0.69044,0 0,-11.88598 -7.92892,-4.57324 0,-10.54963 9.13162,-5.2711 z"
         id="path10483"
         inkscape:connector-curvature="0" />
      <path
         inkscape:export-ydpi="166.74196"
         inkscape:export-xdpi="166.74196"
         inkscape:export-filename="/home/rlafuente/Projects/GPG/ilustras-site/weboftrust.png"
         inkscape:connector-curvature="0"
         id="path10485"
         d="m 409.49657,636.84092 9.13162,5.2711 0,10.54963 -7.93634,4.58066 0,18.03311 c 0,0.53513 -0.43001,0.96513 -0.96513,0.96513 l -0.46772,0 c -0.53513,0 -0.96513,-0.43 -0.96513,-0.96513 l 0,-0.48999 -0.69044,0 -3.50418,0 0,-1.04681 1.31408,0 c 0.13383,0 0.24499,-0.28144 0.24499,-0.40831 0,-0.12684 -0.11116,-0.4306 -0.24499,-0.4306 l -0.59393,0 0,-0.57907 c 0,0 0.24499,-0.10375 0.24499,-0.23758 l 0,-0.0668 c 0,-0.13382 -0.11116,-0.24498 -0.24499,-0.24498 l -0.72015,0 0,-0.7053 0.95029,0 c 0.13385,0 0.24501,-0.11115 0.24501,-0.24498 l 0,-0.77211 c 0,-0.13385 -0.11116,-0.24498 -0.24501,-0.24498 l -0.95029,0 0,-0.68301 3.50418,0 0.69044,0 0,-11.88598 -7.92892,-4.57324 0,-10.54963 9.13162,-5.2711 z"
         style="color:#000000;fill:#5f8dd3;fill-opacity:1;fill-rule:nonzero;stroke:none;stroke-width:1.76498926;marker:none;visibility:visible;display:inline;overflow:visible;enable-background:accumulate" />
      <path
         inkscape:export-ydpi="166.74196"
         inkscape:export-xdpi="166.74196"
         inkscape:export-filename="/home/rlafuente/Projects/GPG/ilustras-site/weboftrust.png"
         style="color:#000000;fill:#5f8dd3;fill-opacity:1;fill-rule:nonzero;stroke:none;stroke-width:1.76498926;marker:none;visibility:visible;display:inline;overflow:visible;enable-background:accumulate"
         d="m 373.31363,615.62797 9.13163,5.27111 0,10.54963 -7.93635,4.58066 0,18.03311 c 0,0.53513 -0.43001,0.96513 -0.96513,0.96513 l -0.46772,0 c -0.53513,0 -0.96513,-0.43 -0.96513,-0.96513 l 0,-0.48999 -0.69044,0 -3.50418,0 0,-1.04681 1.31408,0 c 0.13383,0 0.24499,-0.28144 0.24499,-0.40831 0,-0.12684 -0.11116,-0.4306 -0.24499,-0.4306 l -0.59393,0 0,-0.57907 c 0,0 0.24499,-0.10375 0.24499,-0.23758 l 0,-0.0668 c 0,-0.13382 -0.11116,-0.24498 -0.24499,-0.24498 l -0.72015,0 0,-0.7053 0.95029,0 c 0.13385,0 0.24501,-0.11115 0.24501,-0.24498 l 0,-0.77211 c 0,-0.13385 -0.11116,-0.24498 -0.24501,-0.24498 l -0.95029,0 0,-0.68301 3.50418,0 0.69044,0 0,-11.88598 -7.92892,-4.57324 0,-10.54963 9.13162,-5.27111 z"
         id="path10487"
         inkscape:connector-curvature="0" />
      <path
         inkscape:export-ydpi="166.74196"
         inkscape:export-xdpi="166.74196"
         inkscape:export-filename="/home/rlafuente/Projects/GPG/ilustras-site/weboftrust.png"
         inkscape:connector-curvature="0"
         id="path10489"
         d="m 364.72877,558.55827 9.13163,5.27111 0,10.54963 -7.93635,4.58066 0,18.03311 c 0,0.53513 -0.43001,0.96513 -0.96513,0.96513 l -0.46772,0 c -0.53513,0 -0.96513,-0.43 -0.96513,-0.96513 l 0,-0.48999 -0.69044,0 -3.50418,0 0,-1.04681 1.31408,0 c 0.13383,0 0.24499,-0.28144 0.24499,-0.40831 0,-0.12684 -0.11116,-0.4306 -0.24499,-0.4306 l -0.59393,0 0,-0.57907 c 0,0 0.24499,-0.10375 0.24499,-0.23758 l 0,-0.0668 c 0,-0.13382 -0.11116,-0.24498 -0.24499,-0.24498 l -0.72015,0 0,-0.7053 0.95029,0 c 0.13385,0 0.24501,-0.11115 0.24501,-0.24498 l 0,-0.77211 c 0,-0.13385 -0.11116,-0.24498 -0.24501,-0.24498 l -0.95029,0 0,-0.68301 3.50418,0 0.69044,0 0,-11.88598 -7.92892,-4.57324 0,-10.54963 9.13162,-5.27111 z"
         style="color:#000000;fill:#5f8dd3;fill-opacity:1;fill-rule:nonzero;stroke:none;stroke-width:1.76498926;marker:none;visibility:visible;display:inline;overflow:visible;enable-background:accumulate" />
      <path
         inkscape:export-ydpi="166.74196"
         inkscape:export-xdpi="166.74196"
         inkscape:export-filename="/home/rlafuente/Projects/GPG/ilustras-site/weboftrust.png"
         style="color:#000000;fill:#5f8dd3;fill-opacity:1;fill-rule:nonzero;stroke:none;stroke-width:1.76498926;marker:none;visibility:visible;display:inline;overflow:visible;enable-background:accumulate"
         d="m 519.15159,537.4864 9.13162,5.27111 0,10.54963 -7.93634,4.58066 0,18.03311 c 0,0.53513 -0.43001,0.96513 -0.96513,0.96513 l -0.46772,0 c -0.53513,0 -0.96513,-0.43 -0.96513,-0.96513 l 0,-0.48999 -0.69044,0 -3.50418,0 0,-1.04681 1.31408,0 c 0.13383,0 0.24499,-0.28144 0.24499,-0.40831 0,-0.12684 -0.11116,-0.4306 -0.24499,-0.4306 l -0.59393,0 0,-0.57907 c 0,0 0.24499,-0.10375 0.24499,-0.23758 l 0,-0.0668 c 0,-0.13382 -0.11116,-0.24498 -0.24499,-0.24498 l -0.72015,0 0,-0.7053 0.95029,0 c 0.13385,0 0.24501,-0.11115 0.24501,-0.24498 l 0,-0.77211 c 0,-0.13385 -0.11116,-0.24498 -0.24501,-0.24498 l -0.95029,0 0,-0.68301 3.50418,0 0.69044,0 0,-11.88598 -7.92892,-4.57324 0,-10.54963 9.13162,-5.27111 z"
         id="path10491"
         inkscape:connector-curvature="0" />
      <path
         inkscape:export-ydpi="166.74196"
         inkscape:export-xdpi="166.74196"
         inkscape:export-filename="/home/rlafuente/Projects/GPG/ilustras-site/weboftrust.png"
         inkscape:connector-curvature="0"
         id="path10493"
         d="m 490.91156,638.98513 9.13162,5.27111 0,10.54963 -7.93634,4.58066 0,18.03311 c 0,0.53513 -0.43001,0.96513 -0.96513,0.96513 l -0.46772,0 c -0.53513,0 -0.96513,-0.43 -0.96513,-0.96513 l 0,-0.48999 -0.69044,0 -3.50418,0 0,-1.04681 1.31408,0 c 0.13383,0 0.24499,-0.28144 0.24499,-0.40831 0,-0.12684 -0.11116,-0.4306 -0.24499,-0.4306 l -0.59393,0 0,-0.57907 c 0,0 0.24499,-0.10375 0.24499,-0.23758 l 0,-0.0668 c 0,-0.13382 -0.11116,-0.24498 -0.24499,-0.24498 l -0.72015,0 0,-0.7053 0.95029,0 c 0.13385,0 0.24501,-0.11115 0.24501,-0.24498 l 0,-0.77211 c 0,-0.13385 -0.11116,-0.24498 -0.24501,-0.24498 l -0.95029,0 0,-0.68301 3.50418,0 0.69044,0 0,-11.88598 -7.92892,-4.57324 0,-10.54963 9.13162,-5.27111 z"
         style="color:#000000;fill:#5f8dd3;fill-opacity:1;fill-rule:nonzero;stroke:none;stroke-width:1.76498926;marker:none;visibility:visible;display:inline;overflow:visible;enable-background:accumulate" />
      <path
         inkscape:export-ydpi="166.74196"
         inkscape:export-xdpi="166.74196"
         inkscape:export-filename="/home/rlafuente/Projects/GPG/ilustras-site/weboftrust.png"
         style="color:#000000;fill:#5f8dd3;fill-opacity:1;fill-rule:nonzero;stroke:none;stroke-width:1.76498926;marker:none;visibility:visible;display:inline;overflow:visible;enable-background:accumulate"
         d="m 532.20067,661.00753 9.13162,5.27111 0,10.54963 -7.93634,4.58066 0,18.03311 c 0,0.53513 -0.43001,0.96513 -0.96513,0.96513 l -0.46772,0 c -0.53513,0 -0.96513,-0.43 -0.96513,-0.96513 l 0,-0.48999 -0.69044,0 -3.50418,0 0,-1.04681 1.31408,0 c 0.13383,0 0.24499,-0.28144 0.24499,-0.40831 0,-0.12684 -0.11116,-0.4306 -0.24499,-0.4306 l -0.59393,0 0,-0.57907 c 0,0 0.24499,-0.10375 0.24499,-0.23758 l 0,-0.0668 c 0,-0.13382 -0.11116,-0.24498 -0.24499,-0.24498 l -0.72015,0 0,-0.7053 0.95029,0 c 0.13385,0 0.24501,-0.11115 0.24501,-0.24498 l 0,-0.77211 c 0,-0.13385 -0.11116,-0.24498 -0.24501,-0.24498 l -0.95029,0 0,-0.68301 3.50418,0 0.69044,0 0,-11.88598 -7.92892,-4.57324 0,-10.54963 9.13162,-5.27111 z"
         id="path10495"
         inkscape:connector-curvature="0" />
      <path
         inkscape:export-ydpi="166.74196"
         inkscape:export-xdpi="166.74196"
         inkscape:export-filename="/home/rlafuente/Projects/GPG/ilustras-site/weboftrust.png"
         inkscape:connector-curvature="0"
         id="path10497"
         d="m 567.87483,620.45653 9.13162,5.27111 0,10.54964 -7.93634,4.58066 0,18.0331 c 0,0.53513 -0.43001,0.96513 -0.96513,0.96513 l -0.46772,0 c -0.53513,0 -0.96513,-0.43 -0.96513,-0.96513 l 0,-0.48999 -0.69044,0 -3.50418,0 0,-1.04681 1.31408,0 c 0.13383,0 0.24499,-0.28144 0.24499,-0.40831 0,-0.12684 -0.11116,-0.4306 -0.24499,-0.4306 l -0.59393,0 0,-0.57907 c 0,0 0.24499,-0.10375 0.24499,-0.23757 l 0,-0.0668 c 0,-0.13382 -0.11116,-0.24498 -0.24499,-0.24498 l -0.72015,0 0,-0.7053 0.95029,0 c 0.13385,0 0.24501,-0.11115 0.24501,-0.24498 l 0,-0.77211 c 0,-0.13385 -0.11116,-0.24498 -0.24501,-0.24498 l -0.95029,0 0,-0.68301 3.50418,0 0.69044,0 0,-11.88598 -7.92892,-4.57324 0,-10.54964 9.13162,-5.27111 z"
         style="color:#000000;fill:#5f8dd3;fill-opacity:1;fill-rule:nonzero;stroke:none;stroke-width:1.76498926;marker:none;visibility:visible;display:inline;overflow:visible;enable-background:accumulate" />
      <path
         inkscape:export-ydpi="166.74196"
         inkscape:export-xdpi="166.74196"
         inkscape:export-filename="/home/rlafuente/Projects/GPG/ilustras-site/weboftrust.png"
         style="color:#000000;fill:#5f8dd3;fill-opacity:1;fill-rule:nonzero;stroke:none;stroke-width:1.76498926;marker:none;visibility:visible;display:inline;overflow:visible;enable-background:accumulate"
         d="m 563.92217,551.69123 9.13162,5.2711 0,10.54963 -7.93634,4.58066 0,18.03311 c 0,0.53513 -0.43001,0.96513 -0.96513,0.96513 l -0.46772,0 c -0.53513,0 -0.96513,-0.43 -0.96513,-0.96513 l 0,-0.48999 -0.69044,0 -3.50418,0 0,-1.04681 1.31408,0 c 0.13383,0 0.24499,-0.28144 0.24499,-0.40831 0,-0.12684 -0.11116,-0.4306 -0.24499,-0.4306 l -0.59393,0 0,-0.57907 c 0,0 0.24499,-0.10375 0.24499,-0.23758 l 0,-0.0668 c 0,-0.13382 -0.11116,-0.24498 -0.24499,-0.24498 l -0.72015,0 0,-0.7053 0.95029,0 c 0.13385,0 0.24501,-0.11115 0.24501,-0.24498 l 0,-0.77211 c 0,-0.13385 -0.11116,-0.24498 -0.24501,-0.24498 l -0.95029,0 0,-0.68301 3.50418,0 0.69044,0 0,-11.88598 -7.92892,-4.57324 0,-10.54963 9.13162,-5.2711 z"
         id="path10499"
         inkscape:connector-curvature="0" />
      <path
         inkscape:export-ydpi="166.74196"
         inkscape:export-xdpi="166.74196"
         inkscape:export-filename="/home/rlafuente/Projects/GPG/ilustras-site/weboftrust.png"
         style="color:#000000;fill:#5f8dd3;fill-opacity:1;fill-rule:nonzero;stroke:none;stroke-width:1.76498926;marker:none;visibility:visible;display:inline;overflow:visible;enable-background:accumulate"
         d="m 602.43919,583.17759 9.13162,5.27111 0,10.54963 -7.93634,4.58066 0,18.0331 c 0,0.53513 -0.43001,0.96513 -0.96513,0.96513 l -0.46772,0 c -0.53513,0 -0.96513,-0.43 -0.96513,-0.96513 l 0,-0.48999 -0.69044,0 -3.50418,0 0,-1.04681 1.31408,0 c 0.13383,0 0.24499,-0.28144 0.24499,-0.40831 0,-0.12684 -0.11116,-0.4306 -0.24499,-0.4306 l -0.59393,0 0,-0.57907 c 0,0 0.24499,-0.10375 0.24499,-0.23757 l 0,-0.0668 c 0,-0.13382 -0.11116,-0.24498 -0.24499,-0.24498 l -0.72015,0 0,-0.7053 0.95029,0 c 0.13385,0 0.24501,-0.11115 0.24501,-0.24498 l 0,-0.77211 c 0,-0.13385 -0.11116,-0.24498 -0.24501,-0.24498 l -0.95029,0 0,-0.68301 3.50418,0 0.69044,0 0,-11.88598 -7.92892,-4.57324 0,-10.54963 9.13162,-5.27111 z"
         id="path10501"
         inkscape:connector-curvature="0" />
    </g>
  </g>
</svg>
